<mxfile host="app.diagrams.net" modified="2021-08-18T20:13:17.223Z" agent="5.0 (Windows NT 10.0; Win64; x64) AppleWebKit/537.36 (KHTML, like Gecko) Chrome/92.0.4515.131 Safari/537.36 Edg/92.0.902.73" etag="xPCCUi9Y7ipBCSrZTVWM" version="14.9.7" type="github">
  <diagram id="DivlxxFs0gpotrYwGN3P" name="Page-1">
    <mxGraphModel dx="1673" dy="896" grid="1" gridSize="10" guides="1" tooltips="1" connect="1" arrows="1" fold="1" page="1" pageScale="1" pageWidth="827" pageHeight="1169" math="0" shadow="0">
      <root>
        <mxCell id="0" />
        <mxCell id="1" parent="0" />
        <mxCell id="nXmjDzD6MzwyapH8CsZ6-11" value="" style="edgeStyle=orthogonalEdgeStyle;rounded=0;orthogonalLoop=1;jettySize=auto;html=1;" edge="1" parent="1" source="nXmjDzD6MzwyapH8CsZ6-2" target="nXmjDzD6MzwyapH8CsZ6-9">
          <mxGeometry relative="1" as="geometry" />
        </mxCell>
        <mxCell id="nXmjDzD6MzwyapH8CsZ6-2" value="" style="pointerEvents=1;shadow=0;dashed=0;html=1;strokeColor=none;fillColor=#505050;labelPosition=center;verticalLabelPosition=bottom;verticalAlign=top;outlineConnect=0;align=center;shape=mxgraph.office.concepts.document;" vertex="1" parent="1">
          <mxGeometry x="180" y="107.5" width="40" height="47" as="geometry" />
        </mxCell>
        <mxCell id="nXmjDzD6MzwyapH8CsZ6-4" value="" style="edgeStyle=orthogonalEdgeStyle;rounded=0;orthogonalLoop=1;jettySize=auto;html=1;" edge="1" parent="1" source="nXmjDzD6MzwyapH8CsZ6-3" target="nXmjDzD6MzwyapH8CsZ6-2">
          <mxGeometry relative="1" as="geometry" />
        </mxCell>
        <mxCell id="nXmjDzD6MzwyapH8CsZ6-3" value="" style="pointerEvents=1;shadow=0;dashed=0;html=1;strokeColor=none;fillColor=#505050;labelPosition=center;verticalLabelPosition=bottom;verticalAlign=top;outlineConnect=0;align=center;shape=mxgraph.office.users.outlook_user;" vertex="1" parent="1">
          <mxGeometry x="40" y="103" width="63" height="55" as="geometry" />
        </mxCell>
        <mxCell id="nXmjDzD6MzwyapH8CsZ6-5" value="" style="pointerEvents=1;shadow=0;dashed=0;html=1;strokeColor=none;fillColor=#505050;labelPosition=center;verticalLabelPosition=bottom;verticalAlign=top;outlineConnect=0;align=center;shape=mxgraph.office.concepts.powershell;" vertex="1" parent="1">
          <mxGeometry x="480" y="40" width="40" height="30" as="geometry" />
        </mxCell>
        <mxCell id="nXmjDzD6MzwyapH8CsZ6-7" value="" style="pointerEvents=1;shadow=0;dashed=0;html=1;strokeColor=none;fillColor=#505050;labelPosition=center;verticalLabelPosition=bottom;verticalAlign=top;outlineConnect=0;align=center;shape=mxgraph.office.concepts.application_generic;" vertex="1" parent="1">
          <mxGeometry x="480" y="230" width="40" height="30" as="geometry" />
        </mxCell>
        <mxCell id="nXmjDzD6MzwyapH8CsZ6-9" value="" style="pointerEvents=1;shadow=0;dashed=0;html=1;strokeColor=none;fillColor=#505050;labelPosition=center;verticalLabelPosition=bottom;verticalAlign=top;outlineConnect=0;align=center;shape=mxgraph.office.servers.application_server;" vertex="1" parent="1">
          <mxGeometry x="330" y="102" width="46" height="56" as="geometry" />
        </mxCell>
        <mxCell id="nXmjDzD6MzwyapH8CsZ6-10" value="Office with Macros" style="text;html=1;strokeColor=none;fillColor=none;align=center;verticalAlign=middle;whiteSpace=wrap;rounded=0;" vertex="1" parent="1">
          <mxGeometry x="180" y="168" width="40" height="20" as="geometry" />
        </mxCell>
        <mxCell id="nXmjDzD6MzwyapH8CsZ6-12" value="C2" style="text;html=1;strokeColor=none;fillColor=none;align=center;verticalAlign=middle;whiteSpace=wrap;rounded=0;" vertex="1" parent="1">
          <mxGeometry x="330" y="158" width="40" height="20" as="geometry" />
        </mxCell>
        <mxCell id="nXmjDzD6MzwyapH8CsZ6-15" value="" style="endArrow=classic;html=1;" edge="1" parent="1" source="nXmjDzD6MzwyapH8CsZ6-9" target="nXmjDzD6MzwyapH8CsZ6-5">
          <mxGeometry width="50" height="50" relative="1" as="geometry">
            <mxPoint x="400" y="200" as="sourcePoint" />
            <mxPoint x="450" y="150" as="targetPoint" />
          </mxGeometry>
        </mxCell>
        <mxCell id="nXmjDzD6MzwyapH8CsZ6-19" value="" style="endArrow=classic;html=1;" edge="1" parent="1" source="nXmjDzD6MzwyapH8CsZ6-9" target="nXmjDzD6MzwyapH8CsZ6-7">
          <mxGeometry width="50" height="50" relative="1" as="geometry">
            <mxPoint x="400" y="200" as="sourcePoint" />
            <mxPoint x="450" y="150" as="targetPoint" />
          </mxGeometry>
        </mxCell>
        <mxCell id="nXmjDzD6MzwyapH8CsZ6-20" value="Initial Access Use Case" style="text;html=1;strokeColor=none;fillColor=none;align=center;verticalAlign=middle;whiteSpace=wrap;rounded=0;" vertex="1" parent="1">
          <mxGeometry x="40" y="20" width="150" height="20" as="geometry" />
        </mxCell>
        <mxCell id="nXmjDzD6MzwyapH8CsZ6-21" value="User" style="text;html=1;align=center;verticalAlign=middle;resizable=0;points=[];autosize=1;strokeColor=none;" vertex="1" parent="1">
          <mxGeometry x="40" y="170" width="40" height="20" as="geometry" />
        </mxCell>
        <mxCell id="nXmjDzD6MzwyapH8CsZ6-22" value="Powershell" style="text;html=1;strokeColor=none;fillColor=none;align=center;verticalAlign=middle;whiteSpace=wrap;rounded=0;" vertex="1" parent="1">
          <mxGeometry x="480" y="70" width="40" height="20" as="geometry" />
        </mxCell>
        <mxCell id="nXmjDzD6MzwyapH8CsZ6-23" value="CMD" style="text;html=1;strokeColor=none;fillColor=none;align=center;verticalAlign=middle;whiteSpace=wrap;rounded=0;" vertex="1" parent="1">
          <mxGeometry x="480" y="260" width="40" height="20" as="geometry" />
        </mxCell>
      </root>
    </mxGraphModel>
  </diagram>
</mxfile>
